<svg xmlns="http://www.w3.org/2000/svg" viewBox="0 0 960 240" width="960" height="240" role="img">
  <title>Gabriel Wagner — Developer RPG</title>
  <desc>Character portrait placeholder for Gabriel Wagner, Full Stack Developer, level 10.</desc>
  <rect width="960" height="240" fill="#0b0f14"/>
  <g><line x1="40" y1="0" x2="40" y2="240" stroke="#22303a" stroke-width="1" opacity="0.25"/><line x1="80" y1="0" x2="80" y2="240" stroke="#22303a" stroke-width="1" opacity="0.25"/><line x1="120" y1="0" x2="120" y2="240" stroke="#22303a" stroke-width="1" opacity="0.25"/><line x1="160" y1="0" x2="160" y2="240" stroke="#22303a" stroke-width="1" opacity="0.25"/><line x1="200" y1="0" x2="200" y2="240" stroke="#22303a" stroke-width="1" opacity="0.25"/><line x1="240" y1="0" x2="240" y2="240" stroke="#22303a" stroke-width="1" opacity="0.25"/><line x1="280" y1="0" x2="280" y2="240" stroke="#22303a" stroke-width="1" opacity="0.25"/><line x1="320" y1="0" x2="320" y2="240" stroke="#22303a" stroke-width="1" opacity="0.25"/><line x1="360" y1="0" x2="360" y2="240" stroke="#22303a" stroke-width="1" opacity="0.25"/><line x1="400" y1="0" x2="400" y2="240" stroke="#22303a" stroke-width="1" opacity="0.25"/><line x1="440" y1="0" x2="440" y2="240" stroke="#22303a" stroke-width="1" opacity="0.25"/><line x1="480" y1="0" x2="480" y2="240" stroke="#22303a" stroke-width="1" opacity="0.25"/><line x1="520" y1="0" x2="520" y2="240" stroke="#22303a" stroke-width="1" opacity="0.25"/><line x1="560" y1="0" x2="560" y2="240" stroke="#22303a" stroke-width="1" opacity="0.25"/><line x1="600" y1="0" x2="600" y2="240" stroke="#22303a" stroke-width="1" opacity="0.25"/><line x1="640" y1="0" x2="640" y2="240" stroke="#22303a" stroke-width="1" opacity="0.25"/><line x1="680" y1="0" x2="680" y2="240" stroke="#22303a" stroke-width="1" opacity="0.25"/><line x1="720" y1="0" x2="720" y2="240" stroke="#22303a" stroke-width="1" opacity="0.25"/><line x1="760" y1="0" x2="760" y2="240" stroke="#22303a" stroke-width="1" opacity="0.25"/><line x1="800" y1="0" x2="800" y2="240" stroke="#22303a" stroke-width="1" opacity="0.25"/><line x1="840" y1="0" x2="840" y2="240" stroke="#22303a" stroke-width="1" opacity="0.25"/><line x1="880" y1="0" x2="880" y2="240" stroke="#22303a" stroke-width="1" opacity="0.25"/><line x1="920" y1="0" x2="920" y2="240" stroke="#22303a" stroke-width="1" opacity="0.25"/><line x1="0" y1="40" x2="960" y2="40" stroke="#22303a" stroke-width="1" opacity="0.18"/><line x1="0" y1="80" x2="960" y2="80" stroke="#22303a" stroke-width="1" opacity="0.18"/><line x1="0" y1="120" x2="960" y2="120" stroke="#22303a" stroke-width="1" opacity="0.18"/><line x1="0" y1="160" x2="960" y2="160" stroke="#22303a" stroke-width="1" opacity="0.18"/><line x1="0" y1="200" x2="960" y2="200" stroke="#22303a" stroke-width="1" opacity="0.18"/></g>
  <text x="760" y="46" font-family="monospace" font-size="20" fill="#FFFFFF" opacity="0.1">&lt;/&gt;</text>
  <text x="850" y="72" font-family="monospace" font-size="18" fill="#FFFFFF" opacity="0.1">{ }</text>
  <text x="900" y="118" font-family="monospace" font-size="14" fill="#FFFFFF" opacity="0.1">git</text>
  <text x="790" y="160" font-family="monospace" font-size="16" fill="#FFFFFF" opacity="0.1">TS</text>
  <text x="870" y="196" font-family="monospace" font-size="16" fill="#FFFFFF" opacity="0.1">=&gt;</text>
  <text x="720" y="200" font-family="monospace" font-size="14" fill="#FFFFFF" opacity="0.1">01</text>
  <circle cx="108" cy="120" r="64" fill="none" stroke="#54e0c7" stroke-width="1.5" opacity="0.5"/>
  <circle cx="108" cy="120" r="54" fill="#0b0f14" stroke="#FFFFFF" stroke-width="2"/>
  <text x="108" y="124" font-size="52" text-anchor="middle" dominant-baseline="middle">🧑‍💻</text>
  <text x="200" y="86" font-family="monospace" font-size="30" font-weight="700" fill="#FFFFFF">Gabriel Wagner</text>
  <g>
    <rect x="200" y="100" width="190" height="26" rx="13" fill="none" stroke="#54e0c7" stroke-width="1.5"/>
    <text x="295" y="117" font-family="monospace" font-size="11" fill="#54e0c7" text-anchor="middle" letter-spacing="0.5">FULL STACK DEVELOPER</text>
  </g>
  <g>
    <rect x="400" y="100" width="110" height="26" rx="13" fill="none" stroke="#ffb454" stroke-width="1.5"/>
    <text x="455" y="117" font-family="monospace" font-size="11" fill="#ffb454" text-anchor="middle" letter-spacing="0.5">LEVEL 10</text>
  </g>
  <g>
    <text x="200" y="152" font-family="monospace" font-size="10" fill="#54e0c7">XP 260 / 760 · 34% to next level</text>
    <rect x="200" y="158" width="560" height="10" rx="5" fill="#22303a"/>
    <rect x="200" y="158" width="190" height="10" rx="5" fill="#54e0c7"/>
  </g>
  <text x="200" y="196" font-family="monospace" font-size="12" font-style="italic" fill="#54e0c7" opacity="0.85">"Every developer has a world to build."</text>
  <rect x="1" y="1" width="958" height="238" rx="14" fill="none" stroke="#22303a" stroke-width="1.5"/>
  <path d="M16 1 L1 1 L1 16" fill="none" stroke="#54e0c7" stroke-width="2"/>
  <path d="M944 1 L959 1 L959 16" fill="none" stroke="#54e0c7" stroke-width="2"/>
  <path d="M16 239 L1 239 L1 224" fill="none" stroke="#54e0c7" stroke-width="2"/>
  <path d="M944 239 L959 239 L959 224" fill="none" stroke="#54e0c7" stroke-width="2"/>
</svg>